<?xml version="1.0" encoding="utf-8"?>
<!-- Generator: Adobe Illustrator 21.1.0, SVG Export Plug-In . SVG Version: 6.00 Build 0)  -->
<svg version="1.1" id="Layer_1" xmlns="http://www.w3.org/2000/svg" xmlns:xlink="http://www.w3.org/1999/xlink" x="0px" y="0px"
	 viewBox="0 0 200 200" style="enable-background:new 0 0 200 200;" xml:space="preserve">
<style type="text/css">
	.st0{fill:#C88A3D;}
	.st1{fill:#009877;}
</style>
<title>Full Colour</title>
<path class="st0" d="M66.2,126.3c1.8,0,3.4,0.7,4.7,2l-2.2,2.4c-0.7-0.6-1.3-1-2.5-1c-2,0-3.5,1.6-3.5,4.2c0,2.8,1.3,4.3,3.9,4.3
	c0.4,0,0.8-0.1,1.2-0.3v-2.1h-2.2v-3.1h5.6v7c-1.1,1-3,1.8-5,1.8c-4,0-7.3-2.5-7.3-7.5C58.8,129.1,62.2,126.3,66.2,126.3z
	 M94.3,141.2l-2.5-4.9h-1.5v4.9h-3.9v-14.7H92c3.1,0,5.8,1.1,5.8,4.8c0,2.1-1,3.5-2.3,4.2l3.1,5.7H94.3z M90.4,133.3h1.4
	c1.5,0,2.3-0.7,2.3-2c0-1.3-0.8-1.6-2.3-1.6h-1.4V133.3z M113.3,133.8c0-4.9,2.8-7.6,6.8-7.6s6.8,2.7,6.8,7.6c0,4.8-2.8,7.6-6.8,7.6
	C116,141.5,113.3,138.7,113.3,133.8L113.3,133.8z M122.9,133.8c0-2.7-1.1-4.2-2.9-4.2c-1.8,0-2.9,1.5-2.9,4.2s1.1,4.3,2.9,4.3
	C121.8,138.1,122.9,136.5,122.9,133.8L122.9,133.8z M141.6,126.5h3.9v8c0,2.6,0.7,3.6,2.2,3.6s2.2-1,2.2-3.6v-8h3.8v7.6
	c0,5-1.9,7.4-6,7.4s-6.1-2.3-6.1-7.4V126.5z M169.4,126.5h5.7c3.1,0,5.8,1.2,5.8,4.9c0,3.6-2.8,5.1-5.8,5.1h-1.8v4.7h-3.9V126.5z
	 M174.9,133.5c1.5,0,2.2-0.8,2.2-2.1c0-1.3-0.8-1.8-2.2-1.8h-1.6v3.9H174.9z"/>
<path class="st1" d="M51.4,10.2L51,10h-2.7l-0.3,1.1c-1,4.1-2.2,8.2-3.4,12c-1.4,4-2.7,7.9-3.9,11.6c-1.3,3.9-2.5,7.8-3.8,11.8
	c-1.3,4-9.3,34.6-10,38.7c-0.4,2.7-0.8,5.4-1.1,8.2c-0.3,2.7-0.6,5.3-1.1,7.6c-0.4,2.1-1.3,9.6-1.8,12.9c-0.1,0.6-0.2,1.1-0.2,1.3
	l0,0l0,0c-0.3,2.2-0.6,4.4-1.2,6.6c-0.5,2.2-1.1,4.5-1.6,7c-0.5,2.3-0.9,4.8-1.1,7.2c-0.3,2.4-0.1,4.9,0.5,7.2L20,145l1.7-1
	c1.3-0.8,2.3-1.9,3.1-3.2c0.6-1.3,1.1-2.7,1.3-4.1c0.3-1.4,0.4-3,0.4-4.4c0.1-1.3,0.2-2.6,0.4-4v-0.1v-0.1c0.4-3.1,0.6-6.2,0.9-9.1
	c0.2-2.4,0.6-4.9,1.3-7.3c2.2-1.6,8.6-5.6,12.1-7.5c0.5,7.6,0.9,14.3,1,19.7c0.1,5.9,0.2,11.3,0.1,15.9c-0.1,4.7-0.2,9.1-0.3,13
	c-0.1,4,0,8.5,0.4,13.1c0.1,1.7,0,3.5-0.3,5.2c-0.4,1.8-0.4,3.6-0.2,5.4c0,1.1,0,2.2,0.1,3.4c0.1,1.4,0.3,2.9,0.7,4.2
	c0.4,1.3,1.2,2.6,2.2,3.7c1.1,1.1,2.7,1.7,4.6,1.7H51l-0.2-1.6c-1.2-10.7-2.2-22.1-2.7-33.7c-0.6-11.6-0.9-23.5-1-35.3
	s0.2-23.8,0.6-35.5s1.2-23.1,2.2-34l0,0c0.4-5.7,1.1-11.3,2-16.8c0.9-5.4,1.3-10.8,1.5-16.3l0,0c0-0.8,0.1-1.7,0.3-2.5
	C53.8,13.3,53.7,11.5,51.4,10.2z M48.2,25.4c0,0.1,0,0.2,0,0.3c0,0.6-0.1,1.3-0.3,1.9c-0.2,1-4.3,22.9-5,34.9
	c-0.7,11.7-1.3,23.8-1.8,36.2c-1.3,0.5-3.2,1.5-6.7,3.1c-1.5,0.8-3.4,1.7-4.9,2.3c2-13.5,4.5-26.4,7.6-38.4
	C40.6,53,47.4,27.9,47.6,27.3C47.8,26.6,48.1,26,48.2,25.4L48.2,25.4z M92.2,80.4c-3,2.5-6,5-9,7.5c-3,2.4-5.2,5.8-6.7,9.8
	c2.1,2.1,4.4,3.7,7.1,4.8c2.7,1.1,5.8,2,9.4,2.6c-0.8,2.3-2,3.6-3.5,3.8c-1.6,0.2-3.2-0.2-5.1-1.1s-3.8-2-5.6-3.1
	c-1.9-1.2-3.5-2-4.9-2.5c-1.7,1.1-3.1,2.5-3.9,4.2c-0.9,1.7-1.7,3.5-2.5,5.2s-1.6,3.3-2.5,4.9c-0.8,1.4-2.2,2.5-3.9,3
	c-0.4-1.9-0.4-3.7,0.1-5.3c0.5-1.7,1.3-3.2,2.3-4.8c1-1.5,2.1-3,3.2-4.5c1.1-1.4,2-3,2.6-4.6c-2.2-2.3-4.5-4.7-6.7-6.8
	c-2.2-2.2-5.2-3.9-8.9-4.9v-3.1c0-0.9,0.4-1.7,1-2.3c2.1,0.4,3.8,0.9,5.2,1.8s2.7,1.9,3.9,3.1s2.3,2.4,3.4,3.7
	c1.1,1.3,2.3,2.4,3.8,3.3c1.7-1,3.3-2.5,4.9-4.6c1.5-2.2,3.1-4.1,4.6-6c1.6-1.9,3.2-3.3,5.1-4.2C87.4,78.9,89.5,79.1,92.2,80.4z
	 M103,81.5c0.8-0.2,1.3-0.1,1.4,0.3c0.2,0.4,0.5,0.5,1.2,0.7c-0.8,2.8-1.3,5.7-1.3,8.5c-0.1,2.9-0.2,5.7-0.3,8.4
	c-0.1,2.8-0.3,5.5-0.4,8.2c-0.2,2.6-0.7,5.1-1.5,7.6c-1.7-1.4-2.9-3.7-3.3-6.7c-0.4-3.2-0.5-6.5-0.3-9.7c0.3-3.3,0.9-6.6,1.8-9.8
	C101.1,85.7,102,83.2,103,81.5L103,81.5z M107.5,65c0.3,1.1,0.6,2.2,1,3.4c0.4,1.2,0,2.2-1,3c-1.7-0.3-3.3-0.6-4.9-1.1
	c-1.5-0.4-2.3-1.5-2.5-3.4c1.2-0.3,2.2-0.7,3.3-1.3C104.4,65,105.7,64.8,107.5,65L107.5,65z M129.8,89.8c0.3,6.5-0.8,11.5-3.3,15
	c-2.5,3.5-6.8,5.2-13,5.1c-1.7-1.3-2.8-2.9-3.2-4.8c-0.4-2-0.4-4-0.3-6c0.3-2.2,0.7-4.4,1.3-6.5c0.6-2.1,1-4.2,1.2-6.4
	c3.5-1.6,6.7-1.9,9.7-1.1C125.1,86,127.7,87.6,129.8,89.8z M115.5,105.1c3.2-0.4,5.7-1.4,7.5-3.2c1.8-1.8,2.7-4.7,2.7-8.8
	c-1.8-1.7-3.5-2.3-5.2-1.9c-1.7,0.4-3.1,1.4-4.2,3c-1.2,1.6-1.9,3.5-2.1,5.6C113.8,101.8,114.4,103.7,115.5,105.1L115.5,105.1z
	 M144.4,82c1.6,0.2,2.7,0.4,3.4,0.8c0.7,0.4,9.8,11.3,10.3,13.9c1.7-0.3,3.1-1,4.2-1.9s2.1-2,3-3.1c0.9-1.1,1.9-2.2,3-3.1
	c1.1-1,2.5-1.6,4.2-1.9c1.1,1.9,1.5,4.7,1.2,8.4c-0.4,3.6-0.1,7.2,0.7,10.8c0.3,0.8,0.8,1.1,1.4,1c0.6-0.2,1.2-0.4,1.8-0.6
	c0.5-0.3,1.2-0.4,1.8-0.4c0.6-0.1,1.1,0.2,1.4,0.8c0.3,2.9-0.3,4.7-1.8,5.6s-3.3,1.4-5.6,1.8c-1.2-0.8-2-2-2.5-3.3
	c-0.5-1.5-1-3.1-1.3-4.6c-0.4-1.6-0.6-3.3-0.8-5.1c-0.3-1.7-0.5-3.5-0.8-5.2c-1.1,0.6-2,1.4-2.7,2.5c-0.7,1.1-1.5,2.1-2.3,3
	c-0.8,0.9-1.8,1.8-2.9,2.5c-1,0.7-2.3,1.2-3.9,1.3c-1.3-1.6-2-3.6-2.2-6.1c-0.2-2.5-0.9-4.4-2.3-5.7c-1.6,1.7-2.7,3.9-3.4,6.4
	c-0.7,2.5-1.4,5.1-2.2,7.7s-1.5,5.1-2.3,7.5c-0.9,2.3-2.2,4.2-3.9,5.7c-1.7-2.6-2.5-5.7-2.2-8.7c0.3-3.3,0.9-6.6,1.8-9.7
	c1-3.3,2-6.7,3.1-10.1C143.6,88.6,144.2,85.3,144.4,82z"/>
</svg>
