<?xml version="1.0" encoding="utf-8"?>
<!-- Generator: Adobe Illustrator 21.1.0, SVG Export Plug-In . SVG Version: 6.00 Build 0)  -->
<svg version="1.1" id="Layer_1" xmlns="http://www.w3.org/2000/svg" xmlns:xlink="http://www.w3.org/1999/xlink" x="0px" y="0px"
	 viewBox="0 0 200 200" style="enable-background:new 0 0 200 200;" xml:space="preserve">
<style type="text/css">
	.st0{fill:#FFFFFF;}
</style>
<title>Full Colour</title>
<path class="st0" d="M62.5,129.2c2,0,3.8,0.8,5.2,2.2l-2.4,2.7c-0.8-0.7-1.5-1.1-2.8-1.1c-2.2,0-3.9,1.8-3.9,4.7
	c0,3.1,1.4,4.8,4.3,4.8c0.4,0,0.9-0.1,1.3-0.3v-2.3h-2.4v-3.5H68v7.8c-1.2,1.1-3.3,2-5.6,2c-4.5,0-8.1-2.8-8.1-8.3
	C54.2,132.3,58,129.2,62.5,129.2z M93.7,145.8l-2.8-5.5h-1.7v5.5h-4.3v-16.3h6.2c3.5,0,6.5,1.2,6.5,5.3c0,2.3-1.1,3.9-2.6,4.7
	l3.5,6.3L93.7,145.8z M89.3,137h1.6c1.7,0,2.6-0.8,2.6-2.2c0-1.4-0.9-1.8-2.6-1.8h-1.6V137z M114.8,137.6c0-5.4,3.1-8.4,7.6-8.4
	c4.5,0,7.6,3,7.6,8.4c0,5.3-3.1,8.5-7.6,8.5C117.8,146.1,114.8,143,114.8,137.6L114.8,137.6z M125.5,137.6c0-3-1.2-4.7-3.2-4.7
	c-2,0-3.2,1.7-3.2,4.7c0,3,1.2,4.8,3.2,4.8C124.3,142.4,125.5,140.6,125.5,137.6L125.5,137.6z M146.3,129.5h4.3v8.9
	c0,2.9,0.8,4,2.5,4c1.7,0,2.5-1.1,2.5-4v-8.9h4.2v8.4c0,5.6-2.1,8.2-6.7,8.2s-6.8-2.6-6.8-8.2L146.3,129.5z M177.2,129.5h6.3
	c3.5,0,6.5,1.3,6.5,5.4c0,4-3.1,5.7-6.5,5.7h-2v5.2h-4.3L177.2,129.5z M183.3,137.3c1.7,0,2.5-0.9,2.5-2.3c0-1.5-0.9-2-2.5-2h-1.8
	v4.3L183.3,137.3z"/>
<path class="st0" d="M46,0.2L45.6,0h-3l-0.3,1.2c-1.1,4.6-2.4,9.1-3.8,13.3c-1.6,4.5-3,8.8-4.3,12.9c-1.4,4.3-2.8,8.7-4.2,13.1
	c-1.4,4.5-10.3,38.4-11.1,43c-0.5,3-0.9,6-1.2,9.1c-0.3,3-0.7,5.9-1.2,8.5c-0.4,2.3-1.5,10.7-2,14.3c-0.1,0.7-0.2,1.2-0.2,1.4v0v0
	c-0.3,2.5-0.7,4.9-1.3,7.3c-0.6,2.5-1.2,5-1.8,7.8c-0.6,2.6-1,5.3-1.2,8c-0.3,2.7-0.1,5.4,0.6,8l0.5,2.1l1.9-1.1
	c1.4-0.9,2.6-2.1,3.4-3.6c0.7-1.5,1.2-3,1.4-4.6c0.3-1.6,0.4-3.3,0.5-4.9c0.1-1.5,0.2-2.9,0.4-4.4v-0.1v-0.1c0.4-3.5,0.7-6.9,1-10.1
	c0.2-2.7,0.7-5.4,1.4-8.1c2.4-1.8,9.6-6.2,13.5-8.3c0.6,8.5,1,15.9,1.1,21.9c0.1,6.6,0.2,12.6,0.1,17.7c-0.1,5.2-0.2,10.1-0.3,14.5
	s0,9.4,0.4,14.6c0.1,1.9,0,3.9-0.3,5.8c-0.4,2-0.5,4-0.2,6c0,1.2,0,2.4,0.1,3.8c0.1,1.6,0.3,3.2,0.8,4.7c0.5,1.5,1.3,2.9,2.4,4.1
	c1.2,1.2,3,1.9,5.1,1.9h1.8l-0.2-1.8c-1.3-11.9-2.4-24.6-3-37.5c-0.7-12.9-1-26.1-1.1-39.2s0.2-26.4,0.7-39.4
	c0.5-13,1.3-25.7,2.4-37.8v0c0.5-6.3,1.2-12.6,2.2-18.7c1-6,1.5-12,1.7-18.1v0c0-0.9,0.1-1.9,0.3-2.8C48.7,3.7,48.6,1.7,46,0.2z
	 M42.5,17.1c0,0.1,0,0.2,0,0.3c0,0.7-0.1,1.4-0.3,2.1C42,20.6,37.4,45,36.6,58.3c-0.8,13-1.5,26.5-2,40.2c-1.4,0.6-3.6,1.7-7.4,3.5
	c-1.7,0.9-3.8,1.9-5.4,2.6c2.2-15,5-29.3,8.5-42.7c3.7-14.1,11.3-42,11.5-42.7C42,18.5,42.3,17.8,42.5,17.1L42.5,17.1z M91.3,78.2
	c-3.3,2.8-6.7,5.6-10,8.3c-3.3,2.7-5.8,6.4-7.4,10.9c2.3,2.3,4.9,4.1,7.9,5.3c3,1.2,6.5,2.2,10.5,2.9c-0.9,2.6-2.2,4-3.9,4.2
	c-1.8,0.2-3.6-0.2-5.7-1.2c-2.1-1-4.2-2.2-6.2-3.4c-2.1-1.3-3.9-2.2-5.5-2.8c-1.9,1.2-3.4,2.8-4.3,4.7c-1,1.9-1.9,3.9-2.8,5.8
	c-0.9,1.9-1.8,3.7-2.8,5.4c-0.9,1.6-2.5,2.8-4.3,3.3c-0.5-2.1-0.5-4.1,0.1-5.9c0.6-1.9,1.5-3.6,2.6-5.3c1.1-1.7,2.3-3.3,3.6-5
	c1.2-1.6,2.2-3.3,2.9-5.1c-2.5-2.6-5-5.2-7.5-7.6c-2.5-2.5-5.8-4.3-9.9-5.5v-3.4c0-1,0.4-1.9,1.1-2.6c2.3,0.4,4.2,1,5.8,2
	c1.6,1,3,2.1,4.3,3.4c1.3,1.3,2.6,2.7,3.8,4.1c1.2,1.4,2.6,2.7,4.2,3.7c1.9-1.1,3.7-2.8,5.4-5.1c1.7-2.4,3.4-4.6,5.1-6.7
	c1.8-2.1,3.6-3.7,5.7-4.7C86,76.6,88.4,76.8,91.3,78.2z M103.4,79.5c0.9-0.2,1.4-0.1,1.6,0.3s0.6,0.6,1.3,0.8
	c-0.9,3.1-1.4,6.3-1.4,9.5c-0.1,3.2-0.2,6.3-0.3,9.3c-0.1,3.1-0.3,6.1-0.5,9.1c-0.2,2.9-0.8,5.7-1.7,8.4c-1.9-1.6-3.2-4.1-3.7-7.5
	c-0.5-3.6-0.6-7.2-0.3-10.8c0.3-3.7,1-7.3,2-10.9C101.3,84.1,102.3,81.4,103.4,79.5L103.4,79.5z M108.4,61.1
	c0.3,1.2,0.7,2.5,1.1,3.8c0.4,1.3,0,2.4-1.1,3.3c-1.9-0.3-3.7-0.7-5.4-1.2c-1.7-0.4-2.6-1.7-2.8-3.8c1.3-0.3,2.5-0.8,3.7-1.4
	C104.9,61.1,106.4,60.9,108.4,61.1L108.4,61.1z M133.1,88.7c0.3,7.2-0.9,12.8-3.7,16.7c-2.8,3.9-7.6,5.8-14.5,5.7
	c-1.9-1.4-3.1-3.2-3.6-5.3c-0.4-2.2-0.5-4.5-0.3-6.7c0.3-2.4,0.8-4.9,1.4-7.2c0.7-2.3,1.1-4.7,1.3-7.1c3.9-1.8,7.5-2.1,10.8-1.2
	C127.9,84.5,130.8,86.2,133.1,88.7z M117.2,105.7c3.6-0.4,6.3-1.6,8.3-3.6c2-2,3-5.2,3-9.8c-2-1.9-3.9-2.6-5.8-2.1
	c-1.9,0.5-3.5,1.6-4.7,3.3c-1.3,1.8-2.1,3.9-2.3,6.2C115.4,102,116,104.1,117.2,105.7L117.2,105.7z M149.4,80c1.8,0.2,3,0.5,3.8,0.9
	s10.9,12.6,11.4,15.4c1.9-0.3,3.5-1.1,4.7-2.1c1.2-1,2.3-2.2,3.3-3.4c1-1.2,2.1-2.4,3.3-3.4c1.2-1.1,2.8-1.8,4.7-2.1
	c1.2,2.1,1.7,5.2,1.3,9.3c-0.4,4-0.1,8,0.8,12c0.3,0.9,0.9,1.2,1.6,1.1c0.7-0.2,1.3-0.4,2-0.7c0.6-0.3,1.3-0.4,2-0.5
	c0.7-0.1,1.2,0.2,1.6,0.9c0.3,3.2-0.3,5.2-2,6.2s-3.7,1.6-6.2,2c-1.3-0.9-2.2-2.2-2.8-3.7c-0.6-1.7-1.1-3.4-1.4-5.1
	c-0.4-1.8-0.7-3.7-0.9-5.7c-0.3-1.9-0.6-3.9-0.9-5.8c-1.2,0.7-2.2,1.6-3,2.8c-0.8,1.2-1.7,2.3-2.6,3.3c-0.9,1-2,2-3.2,2.8
	c-1.1,0.8-2.6,1.3-4.3,1.4c-1.4-1.8-2.2-4-2.4-6.8s-1-4.9-2.6-6.3c-1.8,1.9-3,4.3-3.8,7.1s-1.6,5.7-2.4,8.6
	c-0.8,2.9-1.7,5.7-2.6,8.3c-1,2.6-2.4,4.7-4.3,6.3c-1.9-2.9-2.8-6.3-2.5-9.7c0.3-3.7,1-7.3,2-10.8c1.1-3.7,2.2-7.4,3.4-11.2
	C148.5,87.4,149.2,83.7,149.4,80z"/>
</svg>
